<svg viewBox="0 0 642 598" fill="none" xmlns="http://www.w3.org/2000/svg" role="img" aria-label="DebugBear">
<path d="M335.594 596.805C293.478 598.485 252.979 592.453 214.07 577.62C139.061 549.027 80.6594 501.221 44.8867 428.207C31.3637 400.605 23.5314 371.273 21.2709 340.491C17.7005 291.87 27.9782 246.233 50.2189 203.077C55.5942 192.646 55.5502 192.623 45.7999 186.037C4.21709 157.947 -11.1255 106.369 8.40111 60.3108C23.7418 24.1261 59.584 0.242718 98.7852 0.162762C140.8 0.0770688 171.22 19.2256 190.975 55.9452C193.854 61.2965 195.844 62.0259 201.362 59.5924C244.323 40.6448 289.273 32.0672 336.157 34.5226C371.397 36.3683 405.315 44.2862 437.684 58.5417C446.664 62.4968 447.01 62.0718 451.942 53.4229C471.399 19.2991 500.44 1.26373 540.127 0.0440179C584.033 -1.30538 627.755 28.4573 638.234 77.3131C646.968 118.034 636.377 153.207 602.639 179.74C598.712 182.829 594.749 185.877 590.719 188.83C586.945 191.595 586.619 194.56 588.882 198.693C603.24 224.915 613.027 252.771 617.674 282.326C627.332 343.753 615.694 401.091 582.659 453.606C541.116 519.648 481.465 562.062 407.277 584.677C384.083 591.747 360.271 595.429 335.594 596.805ZM285.601 411.81C279.027 429.258 272.421 446.694 265.89 464.159C261.808 475.072 257.865 486.038 253.805 496.96C252.46 500.576 253.171 503.551 256.375 505.697C259.718 507.936 262.701 506.821 265.385 504.314C266.236 503.518 267.034 502.665 267.863 501.844C288.919 480.962 309.699 459.811 330.27 438.448C364.243 403.168 397.73 367.432 431.13 331.612C434.046 328.486 435.898 325.066 434.167 320.777C432.495 316.633 428.845 315.691 424.795 315.444C399.36 313.898 373.904 312.971 348.422 312.742C340.683 312.673 337.745 308.648 340.238 301.393C342.456 294.938 344.863 288.546 347.27 282.157C358.72 251.772 370.211 221.402 381.649 191.013C383.086 187.195 383.495 183.237 379.492 180.749C375.454 178.239 372.01 179.843 368.862 183.089C361.438 190.743 353.657 198.055 346.333 205.802C306.734 247.689 267.219 289.658 227.7 331.622C220.049 339.746 212.487 347.956 204.922 356.161C202.357 358.944 200.332 362.037 201.87 366.038C203.512 370.308 207.115 371.804 211.357 372.178C212.02 372.236 212.69 372.202 213.356 372.22C238.328 372.906 263.3 373.569 288.271 374.297C295.308 374.503 297.969 378.662 295.484 385.356C292.297 393.939 289.084 402.512 285.601 411.81ZM77.7843 147.002C81.6556 149.031 85.1751 148.752 88.0963 145.283C104.787 125.463 123.523 107.849 144.538 92.6614C148.04 90.1304 148.891 86.7747 147.333 82.5436C135.323 49.9281 90.8222 39.7822 65.834 64.0224C40.397 88.698 45.8261 128.399 77.7843 147.002ZM536.709 126.951C542.072 132.872 547.528 138.712 552.764 144.743C556.019 148.491 559.459 149.09 563.815 146.773C584.456 135.796 595.359 111.937 589.968 89.3019C584.864 67.8695 566.737 52.3732 544.935 50.8036C522.117 49.1608 502.255 61.6037 494.001 82.5784C492.136 87.3184 493.806 90.5359 497.619 93.275C511.447 103.209 524.168 114.437 536.709 126.951Z" fill="black"/>
</svg>
